<svg width="447" height="1487" viewBox="0 0 447 1487" fill="none" xmlns="http://www.w3.org/2000/svg">
<path d="M0 1352C0 1331.01 17.0132 1314 38 1314H174V1449C174 1469.99 156.987 1487 136 1487H0V1352Z" fill="white"/>
<path d="M0 1352C0 1331.01 17.0132 1314 38 1314H174V1449C174 1469.99 156.987 1487 136 1487H0V1352Z" fill="#BDBDBD"/>
<path d="M0 1352C0 1331.01 17.0132 1314 38 1314H174V1449C174 1469.99 156.987 1487 136 1487H0V1352Z" fill="#DEDEDE"/>
<path d="M159 829C159 808.013 141.987 791 121 791H21V888C21 908.987 38.0132 926 59 926H159V829Z" fill="white"/>
<path d="M159 829C159 808.013 141.987 791 121 791H21V888C21 908.987 38.0132 926 59 926H159V829Z" fill="#BDBDBD"/>
<path d="M159 829C159 808.013 141.987 791 121 791H21V888C21 908.987 38.0132 926 59 926H159V829Z" fill="#DEDEDE"/>
<path d="M184 1445C184 1422.36 202.356 1404 225 1404V1404C247.644 1404 266 1422.36 266 1445V1446C266 1468.64 247.644 1487 225 1487V1487C202.356 1487 184 1468.64 184 1446V1445Z" fill="white"/>
<rect x="184" y="1314" width="229" height="77" rx="13" fill="white"/>
<rect x="184" y="1314" width="229" height="77" rx="13" fill="#BDBDBD"/>
<rect x="184" y="1314" width="229" height="77" rx="13" fill="#DEDEDE"/>
<path d="M297.902 1445.95L382.101 1402.34C392.086 1397.17 404 1404.42 404 1415.66V1469C404 1477.28 397.284 1484 389 1484H287.721C272.323 1484 266.921 1463.57 280.306 1455.96L297.902 1445.95Z" fill="white"/>
<path d="M297.902 1445.95L382.101 1402.34C392.086 1397.17 404 1404.42 404 1415.66V1469C404 1477.28 397.284 1484 389 1484H287.721C272.323 1484 266.921 1463.57 280.306 1455.96L297.902 1445.95Z" fill="#BDBDBD"/>
<path d="M425 1077C425 1097.99 407.987 1115 387 1115H251V980C251 959.013 268.013 942 289 942H425V1077Z" fill="white"/>
<path d="M425 1077C425 1097.99 407.987 1115 387 1115H251V980C251 959.013 268.013 942 289 942H425V1077Z" fill="#BDBDBD"/>
<path d="M241 984C241 1006.64 222.644 1025 200 1025V1025C177.356 1025 159 1006.64 159 984V983C159 960.356 177.356 942 200 942V942C222.644 942 241 960.356 241 983V984Z" fill="white"/>
<path d="M241 984C241 1006.64 222.644 1025 200 1025V1025C177.356 1025 159 1006.64 159 984V983C159 960.356 177.356 942 200 942V942C222.644 942 241 960.356 241 983V984Z" fill="white"/>
<rect x="241" y="1115" width="229" height="77" rx="13" transform="rotate(180 241 1115)" fill="white"/>
<path d="M127.098 983.045L42.8989 1026.66C32.9144 1031.83 21 1024.58 21 1013.34V960C21 951.716 27.7157 945 36 945H137.279C152.677 945 158.079 965.427 144.694 973.039L127.098 983.045Z" fill="white"/>
<path d="M127.098 983.045L42.8989 1026.66C32.9144 1031.83 21 1024.58 21 1013.34V960C21 951.716 27.7157 945 36 945H137.279C152.677 945 158.079 965.427 144.694 973.039L127.098 983.045Z" fill="#BDBDBD"/>
<path d="M362 1263C362 1283.99 344.987 1301 324 1301H246V1222C246 1201.01 263.013 1184 284 1184H362V1263Z" fill="white"/>
<path d="M107 1260C107 1282.64 88.6437 1301 66 1301V1301C43.3563 1301 25 1282.64 25 1260V1259C25 1236.36 43.3563 1218 66 1218V1218C88.6437 1218 107 1236.36 107 1259V1260Z" fill="white"/>
<path d="M362 1178H271C257.193 1178 246 1166.81 246 1153V1153C246 1139.19 257.193 1128 271 1128H312C339.614 1128 362 1150.39 362 1178V1178Z" fill="white"/>
<rect x="159" y="1301" width="173" height="77" rx="13" transform="rotate(-90 159 1301)" fill="white"/>
<rect x="159" y="1301" width="173" height="77" rx="13" transform="rotate(-90 159 1301)" fill="#BDBDBD"/>
<rect x="374" y="1301" width="173" height="39" rx="13" transform="rotate(-90 374 1301)" fill="white"/>
<rect x="374" y="1301" width="173" height="39" rx="13" transform="rotate(-90 374 1301)" fill="#BDBDBD"/>
<path d="M380 888C380 908.987 362.987 926 342 926H264V847C264 826.013 281.013 809 302 809H380V888Z" fill="white"/>
<path d="M380 888C380 908.987 362.987 926 342 926H264V847C264 826.013 281.013 809 302 809H380V888Z" fill="#BDBDBD"/>
<path d="M380 803H289C275.193 803 264 791.807 264 778V778C264 764.193 275.193 753 289 753H330C357.614 753 380 775.386 380 803V803Z" fill="white"/>
<rect x="177" y="926" width="173" height="77" rx="13" transform="rotate(-90 177 926)" fill="white"/>
<rect x="177" y="926" width="173" height="77" rx="13" transform="rotate(-90 177 926)" fill="#BDBDBD"/>
<rect x="159" y="778" width="138" height="25" rx="12.5" transform="rotate(180 159 778)" fill="white"/>
<rect x="392" y="926" width="173" height="39" rx="13" transform="rotate(-90 392 926)" fill="white"/>
<rect x="392" y="926" width="173" height="39" rx="13" transform="rotate(-90 392 926)" fill="#BDBDBD"/>
<path d="M122.098 1169.05L37.8989 1212.66C27.9144 1217.83 16 1210.58 16 1199.34V1146C16 1137.72 22.7157 1131 31 1131H132.279C147.677 1131 153.079 1151.43 139.694 1159.04L122.098 1169.05Z" fill="white"/>
<path d="M122.098 1169.05L37.8989 1212.66C27.9144 1217.83 16 1210.58 16 1199.34V1146C16 1137.72 22.7157 1131 31 1131H132.279C147.677 1131 153.079 1151.43 139.694 1159.04L122.098 1169.05Z" fill="#BDBDBD"/>
<path d="M427 599C427 578.013 409.987 561 389 561H253V696C253 716.987 270.013 734 291 734H427V599Z" fill="white"/>
<path d="M427 599C427 578.013 409.987 561 389 561H253V696C253 716.987 270.013 734 291 734H427V599Z" fill="#BDBDBD"/>
<path d="M427 599C427 578.013 409.987 561 389 561H253V696C253 716.987 270.013 734 291 734H427V599Z" fill="#DEDEDE"/>
<path d="M175 76C175 55.0132 157.987 38 137 38H37V135C37 155.987 54.0132 173 75 173H175V76Z" fill="white"/>
<path d="M175 76C175 55.0132 157.987 38 137 38H37V135C37 155.987 54.0132 173 75 173H175V76Z" fill="#BDBDBD"/>
<path d="M243 692C243 669.356 224.644 651 202 651V651C179.356 651 161 669.356 161 692V693C161 715.644 179.356 734 202 734V734C224.644 734 243 715.644 243 693V692Z" fill="white"/>
<path d="M128 692C128 669.356 109.644 651 87 651V651C64.3563 651 46 669.356 46 692V693C46 715.644 64.3563 734 87 734V734C109.644 734 128 715.644 128 693V692Z" fill="white"/>
<rect width="229" height="77" rx="13" transform="matrix(-1 0 0 1 243 561)" fill="white"/>
<rect width="229" height="77" rx="13" transform="matrix(-1 0 0 1 243 561)" fill="#BDBDBD"/>
<path d="M441 324C441 344.987 423.987 362 403 362H267V227C267 206.013 284.013 189 305 189H441V324Z" fill="white"/>
<path d="M441 324C441 344.987 423.987 362 403 362H267V227C267 206.013 284.013 189 305 189H441V324Z" fill="#BDBDBD"/>
<path d="M441 324C441 344.987 423.987 362 403 362H267V227C267 206.013 284.013 189 305 189H441V324Z" fill="#DEDEDE"/>
<path d="M257 231C257 253.644 238.644 272 216 272V272C193.356 272 175 253.644 175 231V230C175 207.356 193.356 189 216 189V189C238.644 189 257 207.356 257 230V231Z" fill="white"/>
<path d="M257 231C257 253.644 238.644 272 216 272V272C193.356 272 175 253.644 175 231V230C175 207.356 193.356 189 216 189V189C238.644 189 257 207.356 257 230V231Z" fill="white"/>
<rect x="257" y="362" width="229" height="77" rx="13" transform="rotate(180 257 362)" fill="white"/>
<rect x="257" y="362" width="229" height="77" rx="13" transform="rotate(180 257 362)" fill="#BDBDBD"/>
<path d="M143.098 230.045L58.8989 273.657C48.9144 278.829 37 271.582 37 260.338V207C37 198.716 43.7157 192 52 192H153.279C168.677 192 174.079 212.427 160.694 220.039L143.098 230.045Z" fill="white"/>
<path d="M97 510C97 530.987 114.013 548 135 548H213V469C213 448.013 195.987 431 175 431H97V510Z" fill="white"/>
<path d="M352 507C352 529.644 370.356 548 393 548V548C415.644 548 434 529.644 434 507V506C434 483.356 415.644 465 393 465V465C370.356 465 352 483.356 352 506V507Z" fill="white"/>
<path d="M97 425H188C201.807 425 213 413.807 213 400V400C213 386.193 201.807 375 188 375H147C119.386 375 97 397.386 97 425V425Z" fill="white"/>
<rect width="173" height="77" rx="13" transform="matrix(0 -1 -1 0 300 548)" fill="white"/>
<rect width="173" height="39" rx="13" transform="matrix(0 -1 -1 0 85 548)" fill="white"/>
<rect width="173" height="39" rx="13" transform="matrix(0 -1 -1 0 85 548)" fill="#BDBDBD"/>
<rect width="173" height="39" rx="13" transform="matrix(0 -1 -1 0 85 548)" fill="#DEDEDE"/>
<path d="M396 135C396 155.987 378.987 173 358 173H280V94C280 73.0132 297.013 56 318 56H396V135Z" fill="white"/>
<path d="M396 50H305C291.193 50 280 38.8071 280 25V25C280 11.1929 291.193 0 305 0H346C373.614 0 396 22.3858 396 50V50Z" fill="white"/>
<rect x="193" y="173" width="173" height="77" rx="13" transform="rotate(-90 193 173)" fill="white"/>
<rect x="175" y="25" width="138" height="25" rx="12.5" transform="rotate(180 175 25)" fill="white"/>
<rect x="408" y="173" width="173" height="39" rx="13" transform="rotate(-90 408 173)" fill="white"/>
<path d="M336.902 416.045L421.101 459.657C431.086 464.829 443 457.582 443 446.338V393C443 384.716 436.284 378 428 378H326.721C311.323 378 305.921 398.427 319.306 406.039L336.902 416.045Z" fill="white"/>
<path d="M336.902 416.045L421.101 459.657C431.086 464.829 443 457.582 443 446.338V393C443 384.716 436.284 378 428 378H326.721C311.323 378 305.921 398.427 319.306 406.039L336.902 416.045Z" fill="#BDBDBD"/>
</svg>
